<?xml version="1.0" encoding="UTF-8" standalone="no"?>
<svg xmlns="http://www.w3.org/2000/svg" viewBox="0 0 200 200"><style>.a{fill:none;stroke-width:7;stroke:#000004;}</style><defs><filter><feGaussianBlur stdDeviation="4.755263"/></filter></defs><g transform="translate(-2.8571 -522.36)matrix(-0.61811 0 0 0.61811 239.66 208.72)" style="filter:url(#filter3485);stroke:#000004"><path d="m77 649.6h171.7v-61.6l94.5 94.4-92.9 92.9v-59h-173.3l0-66.7z" class="a"/><path d="m84 656.6h171.7v-51.6l77.4 77.4-75.9 75.9v-49h-173.3l0-52.7z" class="a"/><path d="m90.6 663.7h172.2v-41.5l60.3 60.3-58.7 58.7v-38.9h-173.8l0-38.5z" class="a"/><path d="m97.4 670.8h172.4v-32l44 44.2-42.3 41.2v-29h-174l0-24.4z" class="a"/><path d="m104 677.4h172.7v-22.4l28.2 27.1-26.6 25.8v-19.7h-174.4l0-10.8z" class="a"/><path d="m106.9 682.7l175.9-0.9v-13.9l14.3 14.1-13.8 14.6v-13.2l-176.4-0.7z" style="fill:none;stroke-width:5;stroke:#000004"/><path d="m286.8 688.8l-0.4-11.9 6.4 5.5-6.1 6.4z" style="fill:#00010c;stroke-width:4;stroke:#000004"/></g><g transform="translate(-2.8571 -522.36)matrix(-0.61811 0 0 0.61811 232.59 199.63)"><path d="m77 649.6h171.7v-61.6l94.5 94.4-92.9 92.9v-59h-173.3l0-66.7z" style="fill:none;stroke-width:7;stroke:#5d60ff"/><path d="m84 656.6h171.7v-51.6l77.4 77.4-75.9 75.9v-49h-173.3l0-52.7z" style="fill:none;stroke-width:7;stroke:#3539ff"/><path d="m90.6 663.7h172.2v-41.5l60.3 60.3-58.7 58.7v-38.9h-173.8l0-38.5z" style="fill:none;stroke-width:7;stroke:#1217ff"/><path d="m97.4 670.8h172.4v-32l44 44.2-42.3 41.2v-29h-174l0-24.4z" style="fill:none;stroke-width:7;stroke:#0003d9"/><path d="m104 677.4h172.7v-22.4l28.2 27.1-26.6 25.8v-19.7h-174.4l0-10.8z" style="fill:none;stroke-width:7;stroke:#0002ae"/><path d="m106.9 682.7l175.9-0.9v-13.9l14.3 14.1-13.8 14.6v-13.2l-176.4-0.7z" style="fill:none;stroke-width:5;stroke:#00025e"/><path d="m286.8 688.8l-0.4-11.9 6.4 5.5-6.1 6.4z" style="fill:#00010c;stroke-width:4;stroke:#000"/></g></svg>
 
